<svg xmlns="http://www.w3.org/2000/svg" width="620" height="270" viewBox="0 0 620 270"><defs><linearGradient id="b" x1="0" x2="1"><stop stop-color="#2563EB"/><stop offset=".5" stop-color="#38BDF8"/><stop offset="1" stop-color="#00E5FF"/></linearGradient><filter id="g"><feDropShadow dx="0" dy="0" stdDeviation="5" flood-color="#00E5FF" flood-opacity=".75"/></filter></defs><rect width="620" height="270" rx="24" fill="#06111F"/><rect x="1" y="1" width="618" height="268" rx="24" fill="none" stroke="url(#b)" opacity=".7"/><text x="32" y="42" font-family="Segoe UI,Arial" font-size="24" font-weight="900" fill="#E0F7FF">Language + Skill Mix</text><g transform="translate(42 76)"><text x="0" y="18" font-family="Segoe UI" font-size="15" font-weight="800" fill="#DFFBFF">Python</text><rect x="180" y="4" width="330" height="16" rx="8" fill="#12314F"/><rect x="180" y="4" width="0" height="16" rx="8" fill="url(#b)" filter="url(#g)"><animate attributeName="width" from="0" to="112" dur="1.6s" begin="0.2s" fill="freeze"/></rect><text x="532" y="18" font-family="Segoe UI" font-size="14" fill="#A5F3FC" opacity="0"><animate attributeName="opacity" from="0" to="1" begin="1.0s" dur=".4s" fill="freeze"/>34%</text></g><g transform="translate(42 111)"><text x="0" y="18" font-family="Segoe UI" font-size="15" font-weight="800" fill="#DFFBFF">TypeScript / React</text><rect x="180" y="4" width="330" height="16" rx="8" fill="#12314F"/><rect x="180" y="4" width="0" height="16" rx="8" fill="url(#b)" filter="url(#g)"><animate attributeName="width" from="0" to="72" dur="1.6s" begin="0.38s" fill="freeze"/></rect><text x="532" y="18" font-family="Segoe UI" font-size="14" fill="#A5F3FC" opacity="0"><animate attributeName="opacity" from="0" to="1" begin="1.15s" dur=".4s" fill="freeze"/>22%</text></g><g transform="translate(42 146)"><text x="0" y="18" font-family="Segoe UI" font-size="15" font-weight="800" fill="#DFFBFF">Backend Systems</text><rect x="180" y="4" width="330" height="16" rx="8" fill="#12314F"/><rect x="180" y="4" width="0" height="16" rx="8" fill="url(#b)" filter="url(#g)"><animate attributeName="width" from="0" to="59" dur="1.6s" begin="0.56s" fill="freeze"/></rect><text x="532" y="18" font-family="Segoe UI" font-size="14" fill="#A5F3FC" opacity="0"><animate attributeName="opacity" from="0" to="1" begin="1.3s" dur=".4s" fill="freeze"/>18%</text></g><g transform="translate(42 181)"><text x="0" y="18" font-family="Segoe UI" font-size="15" font-weight="800" fill="#DFFBFF">Agentic AI / RAG</text><rect x="180" y="4" width="330" height="16" rx="8" fill="#12314F"/><rect x="180" y="4" width="0" height="16" rx="8" fill="url(#b)" filter="url(#g)"><animate attributeName="width" from="0" to="52" dur="1.6s" begin="0.74s" fill="freeze"/></rect><text x="532" y="18" font-family="Segoe UI" font-size="14" fill="#A5F3FC" opacity="0"><animate attributeName="opacity" from="0" to="1" begin="1.45s" dur=".4s" fill="freeze"/>16%</text></g><g transform="translate(42 216)"><text x="0" y="18" font-family="Segoe UI" font-size="15" font-weight="800" fill="#DFFBFF">Cybersecurity</text><rect x="180" y="4" width="330" height="16" rx="8" fill="#12314F"/><rect x="180" y="4" width="0" height="16" rx="8" fill="url(#b)" filter="url(#g)"><animate attributeName="width" from="0" to="33" dur="1.6s" begin="0.9199999999999999s" fill="freeze"/></rect><text x="532" y="18" font-family="Segoe UI" font-size="14" fill="#A5F3FC" opacity="0"><animate attributeName="opacity" from="0" to="1" begin="1.6s" dur=".4s" fill="freeze"/>10%</text></g></svg>